<?xml version="1.0" encoding="UTF-8"?><svg id="Layer_2" xmlns="http://www.w3.org/2000/svg" viewBox="0 0 213.42 105.45"><defs><style>.cls-1{fill:#d90000;}</style></defs><g id="Layer_1-2"><path d="M38.62,79l-17.89-19.86h-3.18v19.86H0V0h17.56v42.68h2.41l17.45-18.76h21.18l-24.14,26.22,26.66,28.86h-22.49Z"/><path d="M120.59,51.46c0,17.45-13.83,29.08-30.18,29.08s-30.5-11.63-30.5-29.08,13.83-28.97,30.5-28.97,30.18,11.63,30.18,28.97ZM103.69,51.46c0-8.56-6.47-14.26-13.28-14.26s-13.61,5.71-13.61,14.26,6.47,14.26,13.61,14.26,13.28-5.6,13.28-14.26Z"/><path d="M186.75,51.46c0,17.45-13.83,29.08-30.18,29.08s-30.5-11.63-30.5-29.08,13.83-28.97,30.5-28.97,30.18,11.63,30.18,28.97ZM169.86,51.46c0-8.56-6.47-14.26-13.28-14.26s-13.61,5.71-13.61,14.26,6.47,14.26,13.61,14.26,13.28-5.6,13.28-14.26Z"/><path d="M195.86,79V0h17.56v79h-17.56Z"/><path d="M12.25,99.71H2.5c.24,2.23,1.87,3.56,3.64,3.56,1.33,0,2.69-.39,3.54-2.08l2.25.48c-.99,2.52-3.13,3.78-5.8,3.78-3.27,0-6.13-2.52-6.13-6.33s2.84-6.38,6.23-6.38,5.89,2.47,6.01,6.09v.87ZM2.57,97.91h7.08c-.39-1.96-1.77-2.93-3.42-2.93s-3.27.99-3.66,2.93Z"/><path d="M48.35,105.12h-2.69l-5.16-12.05h2.74l3.78,9.05,3.78-9.05h2.74l-5.19,12.05Z"/><path d="M94,99.71h-9.75c.24,2.23,1.87,3.56,3.64,3.56,1.33,0,2.69-.39,3.54-2.08l2.26.48c-.99,2.52-3.13,3.78-5.8,3.78-3.27,0-6.13-2.52-6.13-6.33s2.84-6.38,6.23-6.38,5.89,2.47,6.01,6.09v.87ZM84.33,97.91h7.08c-.39-1.96-1.77-2.93-3.42-2.93s-3.27.99-3.66,2.93Z"/><path d="M135.71,97.84v7.27h-2.55v-6.77c0-1.96-1.14-3.27-2.86-3.27-2.16,0-3.59,1.46-3.59,4.49v5.55h-2.52v-12.03h2.52v1.48c.97-1.16,2.38-1.82,4.17-1.82,2.89,0,4.83,2.09,4.83,5.09Z"/><path d="M174.62,104.53c-1.14.68-1.96.92-2.98.92-2.59,0-4.34-1.45-4.34-4.44v-5.84h-2.59v-2.09h2.59v-3.73h2.52v3.73h4.12v2.09h-4.12v5.67c0,1.5.8,2.23,1.99,2.23.63,0,1.41-.24,2.04-.66l.78,2.11Z"/><path d="M205.56,101.36c.17,1.43,1.43,2.04,3.01,2.04,1.46,0,2.38-.65,2.38-1.6,0-.73-.51-1.19-1.62-1.43l-2.62-.53c-2.09-.46-3.27-1.58-3.27-3.27,0-2.23,1.87-3.81,4.75-3.81s4.63,1.46,5.07,3.47l-2.4.51c-.19-1.16-1.19-1.96-2.74-1.96s-2.13.73-2.13,1.58c0,.68.39,1.12,1.46,1.36l2.86.63c1.94.41,3.13,1.55,3.13,3.25,0,2.52-2.06,3.88-5.07,3.88-2.69,0-5-1.14-5.31-3.56l2.52-.53Z"/><path class="cls-1" d="M134.34,55.75c0-1.65-.57-3.21-1.62-4.45,1.05-1.24,1.62-2.8,1.62-4.45,0-3.8-3.08-6.89-6.86-6.89-8.18,0-13.58,10.62-13.81,11.07-.08.17-.08.37,0,.53.23.45,5.63,11.07,13.81,11.07,3.78,0,6.86-3.09,6.86-6.89Z"/></g></svg>