<?xml version="1.0" encoding="UTF-8"?><svg id="Layer_2" xmlns="http://www.w3.org/2000/svg" viewBox="0 0 213.42 105.46"><defs><style>.cls-1{fill:#fff;}</style></defs><g id="Layer_1-2"><polygon class="cls-1" points="58.6 23.92 37.42 23.92 19.97 42.68 17.56 42.68 17.56 0 0 0 0 79 17.56 79 17.56 59.14 20.74 59.14 38.62 79 61.12 79 34.46 50.15 58.6 23.92"/><path class="cls-1" d="M134.34,47.07c0-3.8-3.08-6.88-6.86-6.88-8.18,0-13.58,10.61-13.81,11.06-.08.17-.08.37,0,.54.14.28,2.29,4.51,5.88,7.65.02-.06.03-.11.05-.17,2.16,1.89,4.82,3.37,7.88,3.37.24,0,.47-.01.7-.04.03.07.06.14.09.21,3.41-.39,6.07-3.31,6.07-6.84,0-1.65-.57-3.21-1.62-4.45,1.05-1.24,1.62-2.8,1.62-4.45ZM156.58,22.5c-11.99,0-22.5,6.01-27.46,15.84,4.11.78,7.22,4.39,7.22,8.73,0,1.57-.42,3.11-1.19,4.45.77,1.34,1.19,2.88,1.19,4.45,0,4.33-3.1,7.95-7.2,8.73,4.97,9.84,15.47,15.84,27.44,15.84,16.35,0,30.18-11.63,30.18-29.07s-13.83-28.97-30.18-28.97ZM156.58,65.73c-7.13,0-13.61-5.6-13.61-14.26s6.48-14.27,13.61-14.27,13.28,5.71,13.28,14.27-6.48,14.26-13.28,14.26ZM134.34,47.07c0-3.8-3.08-6.88-6.86-6.88-8.18,0-13.58,10.61-13.81,11.06-.08.17-.08.37,0,.54.14.28,2.29,4.51,5.88,7.65.02-.06.03-.11.05-.17,2.16,1.89,4.82,3.37,7.88,3.37.24,0,.47-.01.7-.04.03.07.06.14.09.21,3.41-.39,6.07-3.31,6.07-6.84,0-1.65-.57-3.21-1.62-4.45,1.05-1.24,1.62-2.8,1.62-4.45ZM116.1,58.82c-2.56-2.89-4.05-5.81-4.22-6.14-.36-.73-.36-1.59,0-2.32.17-.33,1.66-3.25,4.22-6.14.91-1.03,1.85-1.93,2.81-2.69-4.13-11.7-15.51-19.03-28.49-19.03-16.68,0-30.51,11.63-30.51,28.97s13.83,29.07,30.51,29.07c12.95,0,24.33-7.3,28.49-19.03-.96-.76-1.9-1.66-2.81-2.69ZM90.42,65.73c-7.14,0-13.61-5.6-13.61-14.26s6.47-14.27,13.61-14.27,13.27,5.71,13.27,14.27-6.47,14.26-13.27,14.26Z"/><rect class="cls-1" x="195.86" width="17.56" height="79"/><path class="cls-1" d="M12.25,98.84c-.13-3.61-2.79-6.09-6.02-6.09-3.39,0-6.23,2.55-6.23,6.38s2.86,6.33,6.14,6.33c2.66,0,4.8-1.26,5.79-3.78l-2.25-.49c-.85,1.7-2.21,2.09-3.54,2.09-1.77,0-3.4-1.34-3.64-3.57h9.75v-.87ZM2.57,97.92c.39-1.94,2.09-2.94,3.66-2.94,1.65,0,3.03.97,3.42,2.94H2.57Z"/><polygon class="cls-1" points="47.02 102.11 43.23 93.06 40.49 93.06 45.66 105.12 48.35 105.12 53.54 93.06 50.8 93.06 47.02 102.11"/><path class="cls-1" d="M94,98.84c-.12-3.61-2.78-6.09-6.01-6.09-3.39,0-6.23,2.55-6.23,6.38s2.86,6.33,6.13,6.33c2.67,0,4.81-1.26,5.8-3.78l-2.26-.49c-.84,1.7-2.2,2.09-3.54,2.09-1.77,0-3.39-1.34-3.63-3.57h9.74v-.87ZM84.33,97.92c.39-1.94,2.08-2.94,3.66-2.94s3.03.97,3.42,2.94h-7.08Z"/><path class="cls-1" d="M130.88,92.75c-1.79,0-3.2.66-4.17,1.82v-1.48h-2.52v12.03h2.52v-5.55c0-3.03,1.43-4.49,3.59-4.49,1.72,0,2.86,1.31,2.86,3.27v6.77h2.55v-7.27c0-3.01-1.94-5.09-4.83-5.09Z"/><path class="cls-1" d="M171.81,103.08c-1.19,0-1.99-.73-1.99-2.23v-5.67h4.12v-2.09h-4.12v-3.73h-2.52v3.73h-2.59v2.09h2.59v5.84c0,2.98,1.75,4.44,4.34,4.44,1.02,0,1.84-.24,2.98-.92l-.78-2.11c-.63.41-1.41.66-2.04.66Z"/><path class="cls-1" d="M210.29,98.33l-2.86-.63c-1.07-.24-1.46-.68-1.46-1.36,0-.85.66-1.58,2.13-1.58,1.55,0,2.55.8,2.74,1.96l2.4-.51c-.44-2.01-2.3-3.47-5.07-3.47s-4.75,1.58-4.75,3.81c0,1.7,1.19,2.81,3.27,3.27l2.62.53c1.12.24,1.62.7,1.62,1.43,0,.95-.92,1.6-2.38,1.6-1.58,0-2.84-.61-3.01-2.04l-2.52.53c.32,2.43,2.62,3.56,5.31,3.56,3.01,0,5.07-1.36,5.07-3.88,0-1.7-1.19-2.84-3.13-3.25Z"/></g></svg>